<svg width="250.00000000000003" height="50" xmlns="http://www.w3.org/2000/svg" version="1.1" enable-background="new 0 0 634 634" xml:space="preserve">
 <g id="Layer_1">
  <title>Layer 1</title>
  <path id="svg_1" d="m-47.12395,-8.58378l0.56913,0l0.17587,-0.54067l0.17587,0.54067l0.56913,0l-0.46044,0.33415l0.17588,0.54067l-0.46044,-0.33416l-0.46044,0.33416l0.17588,-0.54067l-0.46044,-0.33415z" stroke="#000" fill="#fff"/>
  <text fill-opacity="0.64" font-weight="bold" xml:space="preserve" text-anchor="start" font-family="Noto Sans JP" font-size="20" stroke-width="0" id="svg_8" y="24.12057" x="45.98865" fill="url(#svg_76)">数智工作室</text>
  <text fill-opacity="0.62" font-weight="bold" xml:space="preserve" text-anchor="start" font-family="Noto Sans JP" font-size="15" stroke-width="0" id="svg_11" y="41.52563" x="45.46122" fill="url(#svg_74)">Digital Intelligence Studio</text>
  <path id="svg_17" d="m-210.45992,-144.54852c8.75527,-3.5865 11.60338,7.70042 11.60338,7.70042l-11.60338,-7.70042z" opacity="NaN" stroke-width="0" stroke="#645A73" fill="#ffaa56"/>
  <polyline fill-opacity="0" stroke-linecap="round" id="svg_22" points="-26.989150090415915,18.776371308016884 -26.883664858348403,18.881856540084392 " stroke-width="0" stroke="#bf5f00" fill="none"/>
  <path id="svg_24" d="m30.87759,22.30919l0.56913,0l0.17587,-0.54067l0.17587,0.54067l0.56913,0l-0.46044,0.33415l0.17588,0.54067l-0.46044,-0.33416l-0.46044,0.33416l0.17588,-0.54067l-0.46044,-0.33415z" fill-opacity="0" stroke-width="0" stroke="#ffffff" fill="#000000"/>
  <path id="svg_25" d="m30.45776,33.85455l0.56913,0l0.17587,-0.54067l0.17587,0.54067l0.56913,0l-0.46044,0.33415l0.17588,0.54067l-0.46044,-0.33416l-0.46044,0.33416l0.17588,-0.54067l-0.46044,-0.33415z" fill-opacity="0" stroke-width="0" stroke="#ffffff" fill="#000000"/>
  <polyline stroke-linecap="round" id="svg_31" points="26.868595123291016,40.295358180999756 26.868595123291016,40.295358180999756 " stroke-width="0" stroke="#ffffff" fill="none"/>
  <path transform="rotate(-91.607 28.0967 32.2423)" stroke-opacity="0.54" stroke-width="5" stroke="url(#svg_65)" d="m14.69115,33.98789c0.11916,-0.08874 0.9648,-0.44091 2.50238,-1.33105c0.84044,-0.48655 1.37885,-0.76344 1.90657,-0.93173c0.70686,-0.22542 1.26421,-0.51115 1.90658,-0.843c0.40627,-0.20988 0.79039,-0.36373 1.19161,-0.62115c0.21565,-0.13836 0.32095,-0.24585 0.47664,-0.22184c0.11009,0.01698 0,0.08874 0,0.1331c0,0.04437 0.1771,0.08092 0.23832,0.17747c0.02738,0.04318 0.24707,0.17444 0.35748,0.22184c0.39037,0.16759 1.01778,0.42233 1.54909,0.57679c0.54766,0.15921 1.73368,0.60369 2.1449,0.843c0.57442,0.33427 0.95329,0.70989 1.31077,0.9761c0.35748,0.26621 1.19161,0.75426 1.66825,1.02047c0.47664,0.26621 1.09512,0.48279 1.31077,0.62115c0.26748,0.17162 0.27322,0.23484 0.35748,0.26621c0.08426,0.03137 0.23832,0 0.23832,0c0.11916,0 0.25612,0.02333 0.35748,0c0.22666,-0.05216 0.49691,-0.27975 0.71496,-0.44368c0.33864,-0.25458 1.0151,-0.51206 1.42993,-0.70989c0.4276,-0.20392 0.95329,-0.44368 1.42993,-0.62116c0.47664,-0.17747 1.09577,-0.48325 1.54909,-0.79863c0.25145,-0.17494 0.68546,-0.35886 0.95329,-0.62115c0.32251,-0.31584 0.67312,-0.54111 0.95328,-0.70989c0.31323,-0.18871 0.68758,-0.43233 1.31077,-0.75426c0.2956,-0.15271 0.47664,-0.31058 0.71497,-0.48805l0.23832,-0.04437l0,-0.04437l0,-0.04437" id="svg_46" fill="none"/>
  <path stroke-opacity="0.86" stroke-width="5" d="m22.45328,7.38397c-0.42194,0.42194 -1.15719,1.47905 -1.68776,2.21519c-0.83891,1.16393 -1.67116,2.54086 -2.32067,3.69198c-0.72014,1.2763 -1.78634,2.466 -2.53164,3.69198c-1.22527,2.01551 -1.64221,3.34896 -1.89874,4.00844c-0.2784,0.71571 -0.30776,0.88469 -0.42194,1.16034c-0.04037,0.09746 0,0.21097 0.10548,0.21097c0.10549,0 0.10549,0 0.21097,0.10548c0,0 0.10548,0 0.10548,0c0.10549,0 0.219,-0.04037 0.31646,0c0.13782,0.05709 0.2218,0.03877 0.42194,0.10549c0.50036,0.16679 0.79159,0.3202 1.26582,0.63291c0.49816,0.32849 0.6771,0.57161 0.84388,0.7384c0.33357,0.33357 0.42194,0.31646 0.52743,0.42194c0.21097,0.21097 0.1799,0.45846 0.42194,0.63291c0.19135,0.13792 0.26584,0.24511 0.42194,0.42194c0.25171,0.28513 0.49778,0.56015 0.84388,0.84388c0.29413,0.24113 0.39283,0.55092 0.7384,0.94937c0.09774,0.1127 0.14109,0.45464 0.31646,0.7384c0.23528,0.3807 0.42194,0.42194 0.52743,0.52743c0.31645,0.31646 0.29222,0.42476 0.31645,0.52742c0.05419,0.22956 0.21097,0.31646 0.21097,0.31646c0.10548,0.21097 0.13638,0.24187 0.21097,0.31646c0.07459,0.07459 0,0.10549 0,0.21097c0,0 -0.12124,0.15552 -0.21097,0.21097c-0.40129,0.24801 -1.4254,1.52469 -2.21519,2.32067c-0.89466,0.90168 -1.58228,1.26582 -1.89873,1.68776c-0.63291,0.84388 -1.10211,1.73475 -1.79325,2.53165c-0.78194,0.90158 -1.39229,1.53295 -1.68776,1.68776c-0.46718,0.24479 -0.52743,0.42194 -0.63291,0.52742l-0.10549,0.10549l-0.10548,0" id="svg_47" stroke="url(#svg_59)" fill="none"/>
 </g>
 <defs>
  <linearGradient spreadMethod="pad" y2="0" x2="1" y1="0" x1="0" id="svg_59">
   <stop offset="0" stop-color="#ffaaff"/>
   <stop offset="1" stop-opacity="0.99609" stop-color="#ffffaa"/>
  </linearGradient>
  <linearGradient y2="0" x2="1" y1="0" x1="0" id="svg_65">
   <stop offset="0.44531" stop-color="#aaffd4"/>
   <stop offset="1" stop-opacity="0.99609" stop-color="#ff0000"/>
   <stop offset="NaN" stop-opacity="0" stop-color="0"/>
  </linearGradient>
  <linearGradient y2="0" x2="1" y1="0" x1="0" id="svg_74">
   <stop offset="0" stop-color="#56aaff"/>
   <stop offset="1" stop-opacity="0.99609" stop-color="#9d00a8"/>
  </linearGradient>
  <linearGradient y2="0" x2="1" y1="0" x1="0" id="svg_76">
   <stop offset="0" stop-color="#56aaff"/>
   <stop stop-opacity="0.99609" offset="1" stop-color="#ffaaff"/>
  </linearGradient>
 </defs>
</svg>